<svg xmlns="http://www.w3.org/2000/svg" width="820" height="820" fill="none" viewBox="0 0 820 820">
  <path fill="#2E3440" d="M609.873 777.552c-10.715-.329-23.552-6.94-31.424-14.679-368.093-362.794-73.668-76.484-521-519.443-10.78-10.706-15.94-21.281-15.676-36.754.992-47.799 1.056-95.731 0-143.594-.393-16.6 4.965-20.892 20.974-20.562 47.9.992 95.863-.457 143.699.923 11.05.33 24.545 5.49 32.284 13.093a131637.17 131637.17 0 0 1 525.622 525.26c7.209 7.209 12.238 19.83 12.503 30.08 1.253 47.799 0 95.73.86 143.594.329 16.393-3.374 23.602-21.636 23.14-48.75-1.12-97.509.535-146.204-1.056l-.002-.002Zm-546.927-.129c-16.475.261-21.372-6.08-21.17-21.815.662-49.454-.261-98.904.726-148.357.197-8.723 4.695-19.241 10.716-25.715 21.234-23.003 44.329-44.293 65.96-66.972 9.724-10.181 16.869-9.65 26.396.26 52.364 51.317 102.284 105.24 155.804 155.37 13.961 12.96 12.837 21.485-.53 33.718-21.235 19.437-40.421 41.188-61.793 60.553-7.145 6.478-18.258 11.904-27.657 12.101-49.485 1.188-98.971.059-148.45.855l-.002.002ZM756.558 42.51c16.475-.26 21.372 6.08 21.17 21.815-.662 49.454.261 98.904-.726 148.358-.197 8.722-4.695 19.24-10.716 25.714-21.235 23.003-44.329 44.293-65.961 66.972-9.723 10.181-16.868 9.65-26.395-.26-52.365-51.317-102.284-105.24-155.804-155.37-13.962-12.96-12.837-21.485.53-33.718 21.235-19.437 40.421-41.188 61.792-60.553 7.146-6.478 18.259-11.904 27.658-12.1 49.485-1.19 98.971-.06 148.451-.856l.001-.002Z"/>
</svg>
