<svg xmlns="http://www.w3.org/2000/svg" width="48" height="48" fill="none" viewBox="0 0 48 48">
  <path fill="#ECEFF4" d="M0 0h48v48H0z"/>
  <path fill="#2E3440" d="M33.76 41.947c-.524-.016-1.15-.339-1.535-.717-17.973-17.714-3.597-3.734-25.44-25.363-.526-.523-.778-1.04-.765-1.795.049-2.334.052-4.674 0-7.011-.019-.81.243-1.02 1.024-1.004 2.34.048 4.681-.023 7.017.045.54.016 1.198.268 1.576.639a6415.814 6415.814 0 0 1 25.665 25.648c.352.351.598.968.61 1.468.062 2.334 0 4.675.043 7.012.016.8-.165 1.152-1.057 1.13-2.38-.055-4.76.026-7.139-.052ZM7.054 41.94c-.804.013-1.044-.296-1.034-1.065.033-2.414-.012-4.829.036-7.244.01-.425.229-.94.523-1.255 1.037-1.123 2.164-2.163 3.22-3.27.476-.498.824-.472 1.29.012 2.556 2.506 4.994 5.139 7.607 7.587.682.633.627 1.049-.026 1.646-1.037.95-1.973 2.011-3.017 2.957-.349.316-.892.581-1.35.59-2.417.059-4.833.004-7.249.042ZM40.922 6.056c.804-.013 1.043.297 1.034 1.065-.033 2.415.012 4.83-.036 7.244-.01.426-.23.94-.523 1.256-1.037 1.123-2.165 2.163-3.221 3.27-.475.497-.824.471-1.289-.013-2.557-2.505-4.994-5.138-7.607-7.586-.682-.633-.627-1.05.025-1.646 1.037-.95 1.974-2.012 3.018-2.957.349-.316.891-.581 1.35-.591 2.416-.058 4.833-.003 7.249-.042Z"/>
</svg>
