<svg xmlns="http://www.w3.org/2000/svg" viewBox="0 0 24 24">
  <path fill="currentColor" d="M19.803 2.009a2.013 2.013 0 0 1 .708.059l.058.014.026.008c.027.009.054.02.08.03a1.14 1.14 0 0 1 .178.074c.03.013.06.026.088.042.032.017.063.036.093.054l.074.046c.166.11.313.244.439.398l.035.046c.028.037.056.073.081.11l.035.057c.057.091.107.186.149.286l.029.08c.035.097.065.196.085.299.005.024.008.05.012.075.016.102.027.206.027.313v16c0 .197-.03.393-.087.582-.01.032-.022.063-.033.094-.01.03-.02.058-.032.087l-.042.09-.042.09-.037.062a2.005 2.005 0 0 1-.313.41 2.01 2.01 0 0 1-.235.198l-.07.05-.057.035a2.017 2.017 0 0 1-.118.07l-.047.022c-.04.02-.08.04-.12.057l-.081.03c-.038.013-.075.027-.113.038l-.039.01a2.02 2.02 0 0 1-.145.036c-.028.006-.056.009-.084.013-.037.006-.073.012-.11.015-.13.013-.26.013-.39 0-.038-.003-.074-.01-.11-.015-.029-.005-.057-.007-.085-.013a2.01 2.01 0 0 1-.145-.036l-.04-.01c-.037-.011-.074-.025-.111-.039-.027-.01-.055-.018-.082-.03a1.613 1.613 0 0 1-.12-.056l-.047-.022a2.015 2.015 0 0 1-.118-.07c-.019-.011-.038-.022-.056-.035l-.07-.05a2.018 2.018 0 0 1-.235-.199L12 14.828l-6.586 6.586a2.004 2.004 0 0 1-.235.198l-.07.051-.057.035a2.013 2.013 0 0 1-.118.07l-.047.022c-.04.02-.08.04-.12.057l-.081.03c-.038.013-.075.027-.113.038l-.039.01a2.011 2.011 0 0 1-.145.036c-.028.006-.056.009-.084.013-.037.006-.073.012-.11.015-.13.013-.26.013-.39 0-.038-.003-.074-.01-.11-.015-.029-.005-.057-.007-.085-.013a2.011 2.011 0 0 1-.145-.036l-.04-.01c-.037-.011-.074-.025-.112-.039-.026-.01-.054-.018-.08-.03a1.195 1.195 0 0 1-.12-.056l-.048-.022a2.013 2.013 0 0 1-.118-.07c-.019-.011-.038-.022-.056-.035l-.07-.05a2.009 2.009 0 0 1-.235-.199 2.003 2.003 0 0 1-.314-.409l-.037-.062-.042-.09-.042-.09-.032-.087-.03-.081-.007-.025A2.008 2.008 0 0 1 2 20V4c0-.106.01-.211.026-.313l.012-.075c.02-.103.05-.202.085-.298.01-.027.018-.055.03-.081.04-.1.092-.195.149-.286L2.33 2.9l.012-.018a2.01 2.01 0 0 1 .54-.54l.017-.012.087-.051c.024-.015.047-.03.072-.043.028-.016.058-.029.088-.042.03-.015.06-.03.09-.042l.087-.033c.031-.01.062-.023.094-.033l.071-.018a1.99 1.99 0 0 1 .708-.059c.108.01.213.032.315.059l.058.014.026.008c.023.007.045.016.068.024.035.013.07.025.105.04.02.008.04.018.061.028.04.018.079.035.117.056.024.012.046.027.069.04.031.02.063.038.093.058.036.024.07.05.104.075l.054.04c.051.043.1.088.148.135L12 9.172l6.586-6.586a2.01 2.01 0 0 1 .147-.135l.054-.04c.031-.023.062-.047.095-.069l.017-.012a1.91 1.91 0 0 1 .085-.051c.023-.014.045-.029.069-.041.038-.021.078-.038.117-.056.02-.01.04-.02.061-.028.035-.015.07-.027.105-.04.027-.009.054-.02.081-.028.023-.007.048-.012.071-.018a1.99 1.99 0 0 1 .315-.059ZM6 15.172 9.172 12 6 8.828v6.344ZM14.828 12 18 15.172V8.828L14.828 12Z"/>
</svg>
