<svg xmlns="http://www.w3.org/2000/svg" viewBox="0 0 24 24">
  <path fill="currentColor" d="M1.073 2.465a2 2 0 0 1 2.462-1.392l18 5h.004c.127.037.25.085.368.144l.006.003c.09.046.173.1.254.159.076.055.15.114.218.18.01.008.019.018.028.028a1.985 1.985 0 0 1 .572 1.17c.004.03.005.059.007.087.003.035.006.07.007.106 0 .041 0 .082-.002.123-.001.024-.001.049-.003.073a1.97 1.97 0 0 1-.057.343c-.004.015-.005.032-.01.047l-.003.009a2.004 2.004 0 0 1-.141.362 1.977 1.977 0 0 1-.18.285l-.03.042-.053.062c-.026.03-.05.06-.078.09-.015.016-.032.03-.049.046a2.018 2.018 0 0 1-.089.082c-.017.016-.036.03-.054.044-.083.066-.17.128-.263.18a2.01 2.01 0 0 1-.564.216L12.22 12l9.214 2.047.005.002c.045.01.088.023.132.036.13.038.253.089.368.15l.048.024c.158.09.3.202.426.328.008.008.018.015.026.024l.013.013c.023.024.044.05.065.076.019.021.038.042.055.064l.033.045a2.005 2.005 0 0 1 .32.649l.002.006c.004.013.005.025.008.038.03.114.05.231.059.351l.003.072c.001.042.003.083.002.124-.001.035-.005.069-.007.103-.002.03-.003.06-.007.09a2.042 2.042 0 0 1-.024.14c-.004.017-.004.035-.008.052l-.002.005c-.01.045-.023.088-.036.132a1.983 1.983 0 0 1-.479.816l-.056.059a2.012 2.012 0 0 1-.213.175 1.968 1.968 0 0 1-.628.304l-.004.002-18 5a2 2 0 0 1-1.07-3.854l10.285-2.858-10.184-2.262c-.019-.004-.037-.011-.056-.016a2.057 2.057 0 0 1-.455-.176 2.049 2.049 0 0 1-.32-.215c-.027-.022-.054-.044-.079-.067-.024-.021-.046-.044-.068-.066l-.065-.067a1.948 1.948 0 0 1-.231-.31 1.975 1.975 0 0 1-.23-.553l-.014-.049c-.003-.01-.003-.02-.005-.03a1.273 1.273 0 0 1-.02-.126c-.004-.025-.008-.05-.01-.074a1.972 1.972 0 0 1 0-.408.963.963 0 0 1 .01-.075c.005-.042.011-.085.02-.127l.005-.028c.003-.017.01-.033.013-.05a1.994 1.994 0 0 1 .28-.63 1.946 1.946 0 0 1 .114-.153c.022-.026.043-.053.066-.078.022-.024.044-.046.067-.068.022-.023.044-.046.068-.067a1.961 1.961 0 0 1 .143-.117c.034-.026.068-.05.104-.074l.045-.029a1.954 1.954 0 0 1 .57-.24l.048-.013L12.75 7.784 2.465 4.927a2 2 0 0 1-1.392-2.462Z"/>
</svg>
